<svg xmlns="http://www.w3.org/2000/svg" viewBox="0 0 3500.02 2075"><defs><style>.cls-1{font-size:439.79px;font-family:NewAlenia-Bold, New Alenia;font-weight:700;letter-spacing:0.37em;}.cls-1,.cls-3{fill:#fff;}.cls-2{letter-spacing:0.35em;}</style></defs><g id="Capa_2" data-name="Capa 2"><g id="Capa_3" data-name="Capa 3"><g id="Capa_6" data-name="Capa 6"><text class="cls-1" transform="translate(0 1976.65)">UN<tspan class="cls-2" x="860.15" y="0">S</tspan><tspan x="1267.67" y="0">T</tspan><tspan class="cls-2" x="1683.79" y="0">R</tspan><tspan x="2137.91" y="0">EAM</tspan></text><path class="cls-3" d="M1676.64,1144.39l-180.9-278.52,16.5-27.56c2.47-4.14,61.63-102.55,149.41-210.35,121.43-149.13,234.82-239.77,337-269.4l7-2h377.13v387l-3.6,9.09c-66.13,167.17-173.88,221.75-252.61,238.1-84.1,17.47-162.92-6.69-170.3-9.23l56.67-92.19s38,13.47,96.71.09c74.32-16.93,131.66-72.66,170.54-165.68V459.15H2020.62c-151.56,49.28-328.48,287.2-403.56,404.78l59.58,89.3Z"/><path class="cls-3" d="M1676.64,1144.39l180.89-278.52L1841,838.31c-2.48-4.14-61.64-102.55-149.42-210.35-121.43-149.13-234.82-239.77-337-269.4l-7-2H970.49v387l3.6,9.09c66.14,167.17,173.88,221.75,252.62,238.1,84.09,17.47,162.91-6.69,170.29-9.23l-56.66-92.19s-38,13.47-96.72.09C1169.3,872.45,1112,816.72,1073.08,723.7V459.15h259.57c151.56,49.28,328.49,287.2,403.56,404.78l-59.57,89.3Z"/><ellipse class="cls-3" cx="1290.77" cy="676.91" rx="51.3" ry="51.31"/><ellipse class="cls-3" cx="2062.4" cy="676.91" rx="51.3" ry="51.31"/><path class="cls-3" d="M702,676.91a969.35,969.35,0,0,1,84.33-396.48l-94-41.86c-2.8,6.28-5.58,12.57-8.27,18.92-56.18,132.87-84.67,274-84.67,419.42s28.49,286.55,84.67,419.42c2.69,6.34,5.47,12.63,8.27,18.91l94-41.85A969.39,969.39,0,0,1,702,676.91Z"/><path class="cls-3" d="M2753.83,676.91c0-145.44-28.49-286.55-84.67-419.42-2.68-6.35-5.47-12.64-8.27-18.92l-94,41.86a974.2,974.2,0,0,1,0,793l94,41.85c2.8-6.28,5.59-12.57,8.27-18.91C2725.34,963.46,2753.83,822.34,2753.83,676.91Z"/><path class="cls-3" d="M2944.35,676.91a1261,1261,0,0,1-109.65,515.74l94.06,41.89q5.34-12,10.48-24.09c71.47-169,107.71-348.52,107.71-533.54s-36.24-364.53-107.71-533.55q-5.13-12.11-10.48-24.08l-94.06,41.89A1260.93,1260.93,0,0,1,2944.35,676.91Z"/><path class="cls-3" d="M306.33,676.91c0,185,36.23,364.53,107.7,533.54q5.13,12.1,10.48,24.09l94.06-41.89a1267.72,1267.72,0,0,1,0-1031.48l-94.06-41.89q-5.34,12-10.48,24.08C342.56,312.38,306.33,491.89,306.33,676.91Z"/><path class="cls-3" d="M3340.06,676.91c0-224.6-44-442.51-130.74-647.67Q3203.1,14.54,3196.59,0l-94.13,41.92c86.74,194.1,135,409,135,635s-48.27,440.89-135,635l94.13,41.92q6.48-14.57,12.73-29.25C3296.07,1119.41,3340.06,901.51,3340.06,676.91Z"/><path class="cls-3" d="M115.8,676.91c0-226,48.27-440.89,135-635L156.68,0Q150.2,14.55,144,29.24C57.2,234.4,13.21,452.31,13.21,676.91s44,442.5,130.74,647.66q6.23,14.72,12.73,29.25l94.13-41.92C164.07,1117.8,115.8,902.89,115.8,676.91Z"/></g></g></g></svg>